<?xml version="1.0" encoding="utf-8" standalone="no"?>
<!DOCTYPE svg PUBLIC "-//W3C//DTD SVG 1.1//EN"
  "http://www.w3.org/Graphics/SVG/1.1/DTD/svg11.dtd">
<!-- Created with matplotlib (https://matplotlib.org/) -->
<svg height="310.86825pt" version="1.1" viewBox="0 0 478.521313 310.86825" width="478.521313pt" xmlns="http://www.w3.org/2000/svg" xmlns:xlink="http://www.w3.org/1999/xlink">
 <metadata>
  <rdf:RDF xmlns:cc="http://creativecommons.org/ns#" xmlns:dc="http://purl.org/dc/elements/1.1/" xmlns:rdf="http://www.w3.org/1999/02/22-rdf-syntax-ns#">
   <cc:Work>
    <dc:type rdf:resource="http://purl.org/dc/dcmitype/StillImage"/>
    <dc:date>2021-09-13T14:34:02.991498</dc:date>
    <dc:format>image/svg+xml</dc:format>
    <dc:creator>
     <cc:Agent>
      <dc:title>Matplotlib v3.3.4, https://matplotlib.org/</dc:title>
     </cc:Agent>
    </dc:creator>
   </cc:Work>
  </rdf:RDF>
 </metadata>
 <defs>
  <style type="text/css">*{stroke-linecap:butt;stroke-linejoin:round;}</style>
 </defs>
 <g id="figure_1">
  <g id="patch_1">
   <path d="M 0 310.86825 
L 478.521313 310.86825 
L 478.521313 0 
L 0 0 
z
" style="fill:#ffffff;"/>
  </g>
  <g id="axes_1">
   <g id="patch_2">
    <path d="M 42.620313 273.312 
L 399.740313 273.312 
L 399.740313 7.2 
L 42.620313 7.2 
z
" style="fill:#ffffff;"/>
   </g>
   <g id="PathCollection_1">
    <defs>
     <path d="M 0 3 
C 0.795609 3 1.55874 2.683901 2.12132 2.12132 
C 2.683901 1.55874 3 0.795609 3 0 
C 3 -0.795609 2.683901 -1.55874 2.12132 -2.12132 
C 1.55874 -2.683901 0.795609 -3 0 -3 
C -0.795609 -3 -1.55874 -2.683901 -2.12132 -2.12132 
C -2.683901 -1.55874 -3 -0.795609 -3 0 
C -3 0.795609 -2.683901 1.55874 -2.12132 2.12132 
C -1.55874 2.683901 -0.795609 3 0 3 
z
" id="mfdd4968dc5" style="stroke:#1f77b4;"/>
    </defs>
    <g clip-path="url(#p0a542e9c0c)">
     <use style="fill:#1f77b4;stroke:#1f77b4;" x="58.85304" xlink:href="#mfdd4968dc5" y="257.939277"/>
     <use style="fill:#1f77b4;stroke:#1f77b4;" x="65.760583" xlink:href="#mfdd4968dc5" y="253.013139"/>
     <use style="fill:#1f77b4;stroke:#1f77b4;" x="72.668127" xlink:href="#mfdd4968dc5" y="257.386903"/>
     <use style="fill:#1f77b4;stroke:#1f77b4;" x="79.57567" xlink:href="#mfdd4968dc5" y="257.497617"/>
     <use style="fill:#1f77b4;stroke:#1f77b4;" x="86.483214" xlink:href="#mfdd4968dc5" y="253.144169"/>
     <use style="fill:#1f77b4;stroke:#1f77b4;" x="93.390757" xlink:href="#mfdd4968dc5" y="258.539651"/>
     <use style="fill:#1f77b4;stroke:#1f77b4;" x="100.298301" xlink:href="#mfdd4968dc5" y="256.68242"/>
     <use style="fill:#1f77b4;stroke:#1f77b4;" x="107.205844" xlink:href="#mfdd4968dc5" y="257.134296"/>
     <use style="fill:#1f77b4;stroke:#1f77b4;" x="114.113388" xlink:href="#mfdd4968dc5" y="252.553853"/>
     <use style="fill:#1f77b4;stroke:#1f77b4;" x="121.020931" xlink:href="#mfdd4968dc5" y="253.749912"/>
     <use style="fill:#1f77b4;stroke:#1f77b4;" x="127.928475" xlink:href="#mfdd4968dc5" y="254.983803"/>
     <use style="fill:#1f77b4;stroke:#1f77b4;" x="134.836018" xlink:href="#mfdd4968dc5" y="248.694914"/>
     <use style="fill:#1f77b4;stroke:#1f77b4;" x="141.743562" xlink:href="#mfdd4968dc5" y="247.678742"/>
     <use style="fill:#1f77b4;stroke:#1f77b4;" x="148.651106" xlink:href="#mfdd4968dc5" y="248.699316"/>
     <use style="fill:#1f77b4;stroke:#1f77b4;" x="155.558649" xlink:href="#mfdd4968dc5" y="250.895945"/>
     <use style="fill:#1f77b4;stroke:#1f77b4;" x="162.466193" xlink:href="#mfdd4968dc5" y="248.899936"/>
     <use style="fill:#1f77b4;stroke:#1f77b4;" x="169.373736" xlink:href="#mfdd4968dc5" y="252.473669"/>
     <use style="fill:#1f77b4;stroke:#1f77b4;" x="176.28128" xlink:href="#mfdd4968dc5" y="250.578743"/>
     <use style="fill:#1f77b4;stroke:#1f77b4;" x="183.188823" xlink:href="#mfdd4968dc5" y="248.81082"/>
     <use style="fill:#1f77b4;stroke:#1f77b4;" x="190.096367" xlink:href="#mfdd4968dc5" y="249.080513"/>
     <use style="fill:#1f77b4;stroke:#1f77b4;" x="197.00391" xlink:href="#mfdd4968dc5" y="249.355468"/>
     <use style="fill:#1f77b4;stroke:#1f77b4;" x="203.911454" xlink:href="#mfdd4968dc5" y="260.491429"/>
     <use style="fill:#1f77b4;stroke:#1f77b4;" x="210.818997" xlink:href="#mfdd4968dc5" y="244.824635"/>
     <use style="fill:#1f77b4;stroke:#1f77b4;" x="217.726541" xlink:href="#mfdd4968dc5" y="248.213797"/>
     <use style="fill:#1f77b4;stroke:#1f77b4;" x="224.634084" xlink:href="#mfdd4968dc5" y="244.697373"/>
     <use style="fill:#1f77b4;stroke:#1f77b4;" x="231.541628" xlink:href="#mfdd4968dc5" y="250.534981"/>
     <use style="fill:#1f77b4;stroke:#1f77b4;" x="238.449171" xlink:href="#mfdd4968dc5" y="242.541085"/>
     <use style="fill:#1f77b4;stroke:#1f77b4;" x="245.356715" xlink:href="#mfdd4968dc5" y="238.501319"/>
     <use style="fill:#1f77b4;stroke:#1f77b4;" x="252.264258" xlink:href="#mfdd4968dc5" y="240.544283"/>
     <use style="fill:#1f77b4;stroke:#1f77b4;" x="259.171802" xlink:href="#mfdd4968dc5" y="245.821699"/>
     <use style="fill:#1f77b4;stroke:#1f77b4;" x="266.079345" xlink:href="#mfdd4968dc5" y="245.552672"/>
     <use style="fill:#1f77b4;stroke:#1f77b4;" x="272.986889" xlink:href="#mfdd4968dc5" y="245.87987"/>
     <use style="fill:#1f77b4;stroke:#1f77b4;" x="279.894432" xlink:href="#mfdd4968dc5" y="247.65936"/>
     <use style="fill:#1f77b4;stroke:#1f77b4;" x="286.801976" xlink:href="#mfdd4968dc5" y="241.383023"/>
     <use style="fill:#1f77b4;stroke:#1f77b4;" x="293.709519" xlink:href="#mfdd4968dc5" y="240.143636"/>
     <use style="fill:#1f77b4;stroke:#1f77b4;" x="300.617063" xlink:href="#mfdd4968dc5" y="244.058918"/>
     <use style="fill:#1f77b4;stroke:#1f77b4;" x="307.524607" xlink:href="#mfdd4968dc5" y="235.539573"/>
     <use style="fill:#1f77b4;stroke:#1f77b4;" x="314.43215" xlink:href="#mfdd4968dc5" y="242.091247"/>
     <use style="fill:#1f77b4;stroke:#1f77b4;" x="321.339694" xlink:href="#mfdd4968dc5" y="241.970751"/>
     <use style="fill:#1f77b4;stroke:#1f77b4;" x="328.247237" xlink:href="#mfdd4968dc5" y="242.107574"/>
     <use style="fill:#1f77b4;stroke:#1f77b4;" x="335.154781" xlink:href="#mfdd4968dc5" y="239.612034"/>
     <use style="fill:#1f77b4;stroke:#1f77b4;" x="342.062324" xlink:href="#mfdd4968dc5" y="242.169321"/>
     <use style="fill:#1f77b4;stroke:#1f77b4;" x="348.969868" xlink:href="#mfdd4968dc5" y="240.807242"/>
     <use style="fill:#1f77b4;stroke:#1f77b4;" x="355.877411" xlink:href="#mfdd4968dc5" y="245.31405"/>
     <use style="fill:#1f77b4;stroke:#1f77b4;" x="362.784955" xlink:href="#mfdd4968dc5" y="238.618474"/>
     <use style="fill:#1f77b4;stroke:#1f77b4;" x="369.692498" xlink:href="#mfdd4968dc5" y="233.436915"/>
     <use style="fill:#1f77b4;stroke:#1f77b4;" x="376.600042" xlink:href="#mfdd4968dc5" y="237.601544"/>
     <use style="fill:#1f77b4;stroke:#1f77b4;" x="383.507585" xlink:href="#mfdd4968dc5" y="234.622422"/>
    </g>
   </g>
   <g id="PathCollection_2">
    <defs>
     <path d="M 0 3 
C 0.795609 3 1.55874 2.683901 2.12132 2.12132 
C 2.683901 1.55874 3 0.795609 3 0 
C 3 -0.795609 2.683901 -1.55874 2.12132 -2.12132 
C 1.55874 -2.683901 0.795609 -3 0 -3 
C -0.795609 -3 -1.55874 -2.683901 -2.12132 -2.12132 
C -2.683901 -1.55874 -3 -0.795609 -3 0 
C -3 0.795609 -2.683901 1.55874 -2.12132 2.12132 
C -1.55874 2.683901 -0.795609 3 0 3 
z
" id="m4f86fef887" style="stroke:#ff7f0e;"/>
    </defs>
    <g clip-path="url(#p0a542e9c0c)">
     <use style="fill:#ff7f0e;stroke:#ff7f0e;" x="58.85304" xlink:href="#m4f86fef887" y="253.66043"/>
     <use style="fill:#ff7f0e;stroke:#ff7f0e;" x="65.760583" xlink:href="#m4f86fef887" y="251.870444"/>
     <use style="fill:#ff7f0e;stroke:#ff7f0e;" x="72.668127" xlink:href="#m4f86fef887" y="256.048552"/>
     <use style="fill:#ff7f0e;stroke:#ff7f0e;" x="79.57567" xlink:href="#m4f86fef887" y="243.27372"/>
     <use style="fill:#ff7f0e;stroke:#ff7f0e;" x="86.483214" xlink:href="#m4f86fef887" y="245.440144"/>
     <use style="fill:#ff7f0e;stroke:#ff7f0e;" x="93.390757" xlink:href="#m4f86fef887" y="243.153767"/>
     <use style="fill:#ff7f0e;stroke:#ff7f0e;" x="100.298301" xlink:href="#m4f86fef887" y="237.676145"/>
     <use style="fill:#ff7f0e;stroke:#ff7f0e;" x="107.205844" xlink:href="#m4f86fef887" y="232.576325"/>
     <use style="fill:#ff7f0e;stroke:#ff7f0e;" x="114.113388" xlink:href="#m4f86fef887" y="226.192257"/>
     <use style="fill:#ff7f0e;stroke:#ff7f0e;" x="121.020931" xlink:href="#m4f86fef887" y="225.186987"/>
     <use style="fill:#ff7f0e;stroke:#ff7f0e;" x="127.928475" xlink:href="#m4f86fef887" y="229.966624"/>
     <use style="fill:#ff7f0e;stroke:#ff7f0e;" x="134.836018" xlink:href="#m4f86fef887" y="222.895625"/>
     <use style="fill:#ff7f0e;stroke:#ff7f0e;" x="141.743562" xlink:href="#m4f86fef887" y="213.426396"/>
     <use style="fill:#ff7f0e;stroke:#ff7f0e;" x="148.651106" xlink:href="#m4f86fef887" y="218.953726"/>
     <use style="fill:#ff7f0e;stroke:#ff7f0e;" x="155.558649" xlink:href="#m4f86fef887" y="210.919248"/>
     <use style="fill:#ff7f0e;stroke:#ff7f0e;" x="162.466193" xlink:href="#m4f86fef887" y="212.681652"/>
     <use style="fill:#ff7f0e;stroke:#ff7f0e;" x="169.373736" xlink:href="#m4f86fef887" y="206.27564"/>
     <use style="fill:#ff7f0e;stroke:#ff7f0e;" x="176.28128" xlink:href="#m4f86fef887" y="202.858038"/>
     <use style="fill:#ff7f0e;stroke:#ff7f0e;" x="183.188823" xlink:href="#m4f86fef887" y="199.992695"/>
     <use style="fill:#ff7f0e;stroke:#ff7f0e;" x="190.096367" xlink:href="#m4f86fef887" y="192.22489"/>
     <use style="fill:#ff7f0e;stroke:#ff7f0e;" x="197.00391" xlink:href="#m4f86fef887" y="197.374848"/>
     <use style="fill:#ff7f0e;stroke:#ff7f0e;" x="203.911454" xlink:href="#m4f86fef887" y="188.078816"/>
     <use style="fill:#ff7f0e;stroke:#ff7f0e;" x="210.818997" xlink:href="#m4f86fef887" y="186.63606"/>
     <use style="fill:#ff7f0e;stroke:#ff7f0e;" x="217.726541" xlink:href="#m4f86fef887" y="182.928901"/>
     <use style="fill:#ff7f0e;stroke:#ff7f0e;" x="224.634084" xlink:href="#m4f86fef887" y="178.309117"/>
     <use style="fill:#ff7f0e;stroke:#ff7f0e;" x="231.541628" xlink:href="#m4f86fef887" y="173.345001"/>
     <use style="fill:#ff7f0e;stroke:#ff7f0e;" x="238.449171" xlink:href="#m4f86fef887" y="169.73374"/>
     <use style="fill:#ff7f0e;stroke:#ff7f0e;" x="245.356715" xlink:href="#m4f86fef887" y="176.699373"/>
     <use style="fill:#ff7f0e;stroke:#ff7f0e;" x="252.264258" xlink:href="#m4f86fef887" y="161.414543"/>
     <use style="fill:#ff7f0e;stroke:#ff7f0e;" x="259.171802" xlink:href="#m4f86fef887" y="161.456442"/>
     <use style="fill:#ff7f0e;stroke:#ff7f0e;" x="266.079345" xlink:href="#m4f86fef887" y="165.228622"/>
     <use style="fill:#ff7f0e;stroke:#ff7f0e;" x="272.986889" xlink:href="#m4f86fef887" y="160.873067"/>
     <use style="fill:#ff7f0e;stroke:#ff7f0e;" x="279.894432" xlink:href="#m4f86fef887" y="149.467621"/>
     <use style="fill:#ff7f0e;stroke:#ff7f0e;" x="286.801976" xlink:href="#m4f86fef887" y="162.006559"/>
     <use style="fill:#ff7f0e;stroke:#ff7f0e;" x="293.709519" xlink:href="#m4f86fef887" y="158.182325"/>
     <use style="fill:#ff7f0e;stroke:#ff7f0e;" x="300.617063" xlink:href="#m4f86fef887" y="148.783755"/>
     <use style="fill:#ff7f0e;stroke:#ff7f0e;" x="307.524607" xlink:href="#m4f86fef887" y="139.264201"/>
     <use style="fill:#ff7f0e;stroke:#ff7f0e;" x="314.43215" xlink:href="#m4f86fef887" y="139.90585"/>
     <use style="fill:#ff7f0e;stroke:#ff7f0e;" x="321.339694" xlink:href="#m4f86fef887" y="139.819209"/>
     <use style="fill:#ff7f0e;stroke:#ff7f0e;" x="328.247237" xlink:href="#m4f86fef887" y="128.39962"/>
     <use style="fill:#ff7f0e;stroke:#ff7f0e;" x="335.154781" xlink:href="#m4f86fef887" y="131.602498"/>
     <use style="fill:#ff7f0e;stroke:#ff7f0e;" x="342.062324" xlink:href="#m4f86fef887" y="121.343885"/>
     <use style="fill:#ff7f0e;stroke:#ff7f0e;" x="348.969868" xlink:href="#m4f86fef887" y="124.529825"/>
     <use style="fill:#ff7f0e;stroke:#ff7f0e;" x="355.877411" xlink:href="#m4f86fef887" y="118.0756"/>
     <use style="fill:#ff7f0e;stroke:#ff7f0e;" x="362.784955" xlink:href="#m4f86fef887" y="120.659318"/>
     <use style="fill:#ff7f0e;stroke:#ff7f0e;" x="369.692498" xlink:href="#m4f86fef887" y="113.050958"/>
     <use style="fill:#ff7f0e;stroke:#ff7f0e;" x="376.600042" xlink:href="#m4f86fef887" y="119.731466"/>
     <use style="fill:#ff7f0e;stroke:#ff7f0e;" x="383.507585" xlink:href="#m4f86fef887" y="103.925101"/>
    </g>
   </g>
   <g id="PathCollection_3">
    <defs>
     <path d="M 0 3 
C 0.795609 3 1.55874 2.683901 2.12132 2.12132 
C 2.683901 1.55874 3 0.795609 3 0 
C 3 -0.795609 2.683901 -1.55874 2.12132 -2.12132 
C 1.55874 -2.683901 0.795609 -3 0 -3 
C -0.795609 -3 -1.55874 -2.683901 -2.12132 -2.12132 
C -2.683901 -1.55874 -3 -0.795609 -3 0 
C -3 0.795609 -2.683901 1.55874 -2.12132 2.12132 
C -1.55874 2.683901 -0.795609 3 0 3 
z
" id="mc2f4d2332f" style="stroke:#2ca02c;"/>
    </defs>
    <g clip-path="url(#p0a542e9c0c)">
     <use style="fill:#2ca02c;stroke:#2ca02c;" x="58.85304" xlink:href="#mc2f4d2332f" y="253.322799"/>
     <use style="fill:#2ca02c;stroke:#2ca02c;" x="65.760583" xlink:href="#mc2f4d2332f" y="241.611563"/>
     <use style="fill:#2ca02c;stroke:#2ca02c;" x="72.668127" xlink:href="#mc2f4d2332f" y="231.020277"/>
     <use style="fill:#2ca02c;stroke:#2ca02c;" x="79.57567" xlink:href="#mc2f4d2332f" y="211.958051"/>
     <use style="fill:#2ca02c;stroke:#2ca02c;" x="86.483214" xlink:href="#mc2f4d2332f" y="199.109195"/>
     <use style="fill:#2ca02c;stroke:#2ca02c;" x="93.390757" xlink:href="#mc2f4d2332f" y="186.681616"/>
     <use style="fill:#2ca02c;stroke:#2ca02c;" x="100.298301" xlink:href="#mc2f4d2332f" y="178.958577"/>
     <use style="fill:#2ca02c;stroke:#2ca02c;" x="107.205844" xlink:href="#mc2f4d2332f" y="156.382176"/>
     <use style="fill:#2ca02c;stroke:#2ca02c;" x="114.113388" xlink:href="#mc2f4d2332f" y="145.834584"/>
     <use style="fill:#2ca02c;stroke:#2ca02c;" x="121.020931" xlink:href="#mc2f4d2332f" y="136.121007"/>
     <use style="fill:#2ca02c;stroke:#2ca02c;" x="127.928475" xlink:href="#mc2f4d2332f" y="118.140594"/>
     <use style="fill:#2ca02c;stroke:#2ca02c;" x="134.836018" xlink:href="#mc2f4d2332f" y="103.156465"/>
     <use style="fill:#2ca02c;stroke:#2ca02c;" x="141.743562" xlink:href="#mc2f4d2332f" y="91.145159"/>
     <use style="fill:#2ca02c;stroke:#2ca02c;" x="148.651106" xlink:href="#mc2f4d2332f" y="85.764388"/>
     <use style="fill:#2ca02c;stroke:#2ca02c;" x="155.558649" xlink:href="#mc2f4d2332f" y="73.810221"/>
     <use style="fill:#2ca02c;stroke:#2ca02c;" x="162.466193" xlink:href="#mc2f4d2332f" y="62.110467"/>
     <use style="fill:#2ca02c;stroke:#2ca02c;" x="169.373736" xlink:href="#mc2f4d2332f" y="58.754018"/>
     <use style="fill:#2ca02c;stroke:#2ca02c;" x="176.28128" xlink:href="#mc2f4d2332f" y="47.852886"/>
     <use style="fill:#2ca02c;stroke:#2ca02c;" x="183.188823" xlink:href="#mc2f4d2332f" y="41.615202"/>
     <use style="fill:#2ca02c;stroke:#2ca02c;" x="190.096367" xlink:href="#mc2f4d2332f" y="46.696397"/>
     <use style="fill:#2ca02c;stroke:#2ca02c;" x="197.00391" xlink:href="#mc2f4d2332f" y="36.279881"/>
     <use style="fill:#2ca02c;stroke:#2ca02c;" x="203.911454" xlink:href="#mc2f4d2332f" y="28.035407"/>
     <use style="fill:#2ca02c;stroke:#2ca02c;" x="210.818997" xlink:href="#mc2f4d2332f" y="38.173175"/>
     <use style="fill:#2ca02c;stroke:#2ca02c;" x="217.726541" xlink:href="#mc2f4d2332f" y="30.713247"/>
     <use style="fill:#2ca02c;stroke:#2ca02c;" x="224.634084" xlink:href="#mc2f4d2332f" y="34.768742"/>
     <use style="fill:#2ca02c;stroke:#2ca02c;" x="231.541628" xlink:href="#mc2f4d2332f" y="26.782493"/>
     <use style="fill:#2ca02c;stroke:#2ca02c;" x="238.449171" xlink:href="#mc2f4d2332f" y="30.251392"/>
     <use style="fill:#2ca02c;stroke:#2ca02c;" x="245.356715" xlink:href="#mc2f4d2332f" y="30.941746"/>
     <use style="fill:#2ca02c;stroke:#2ca02c;" x="252.264258" xlink:href="#mc2f4d2332f" y="24.722407"/>
     <use style="fill:#2ca02c;stroke:#2ca02c;" x="259.171802" xlink:href="#mc2f4d2332f" y="33.173896"/>
     <use style="fill:#2ca02c;stroke:#2ca02c;" x="266.079345" xlink:href="#mc2f4d2332f" y="34.347482"/>
     <use style="fill:#2ca02c;stroke:#2ca02c;" x="272.986889" xlink:href="#mc2f4d2332f" y="31.751923"/>
     <use style="fill:#2ca02c;stroke:#2ca02c;" x="279.894432" xlink:href="#mc2f4d2332f" y="32.63674"/>
     <use style="fill:#2ca02c;stroke:#2ca02c;" x="286.801976" xlink:href="#mc2f4d2332f" y="32.372012"/>
     <use style="fill:#2ca02c;stroke:#2ca02c;" x="293.709519" xlink:href="#mc2f4d2332f" y="27.222357"/>
     <use style="fill:#2ca02c;stroke:#2ca02c;" x="300.617063" xlink:href="#mc2f4d2332f" y="22.484131"/>
     <use style="fill:#2ca02c;stroke:#2ca02c;" x="307.524607" xlink:href="#mc2f4d2332f" y="28.862488"/>
     <use style="fill:#2ca02c;stroke:#2ca02c;" x="314.43215" xlink:href="#mc2f4d2332f" y="25.440341"/>
     <use style="fill:#2ca02c;stroke:#2ca02c;" x="321.339694" xlink:href="#mc2f4d2332f" y="22.434573"/>
     <use style="fill:#2ca02c;stroke:#2ca02c;" x="328.247237" xlink:href="#mc2f4d2332f" y="19.72868"/>
     <use style="fill:#2ca02c;stroke:#2ca02c;" x="335.154781" xlink:href="#mc2f4d2332f" y="19.973419"/>
     <use style="fill:#2ca02c;stroke:#2ca02c;" x="342.062324" xlink:href="#mc2f4d2332f" y="26.898355"/>
     <use style="fill:#2ca02c;stroke:#2ca02c;" x="348.969868" xlink:href="#mc2f4d2332f" y="26.580203"/>
     <use style="fill:#2ca02c;stroke:#2ca02c;" x="355.877411" xlink:href="#mc2f4d2332f" y="23.747872"/>
     <use style="fill:#2ca02c;stroke:#2ca02c;" x="362.784955" xlink:href="#mc2f4d2332f" y="23.756121"/>
     <use style="fill:#2ca02c;stroke:#2ca02c;" x="369.692498" xlink:href="#mc2f4d2332f" y="26.505955"/>
     <use style="fill:#2ca02c;stroke:#2ca02c;" x="376.600042" xlink:href="#mc2f4d2332f" y="23.899682"/>
     <use style="fill:#2ca02c;stroke:#2ca02c;" x="383.507585" xlink:href="#mc2f4d2332f" y="31.964783"/>
    </g>
   </g>
   <g id="PathCollection_4">
    <defs>
     <path d="M 0 3 
C 0.795609 3 1.55874 2.683901 2.12132 2.12132 
C 2.683901 1.55874 3 0.795609 3 0 
C 3 -0.795609 2.683901 -1.55874 2.12132 -2.12132 
C 1.55874 -2.683901 0.795609 -3 0 -3 
C -0.795609 -3 -1.55874 -2.683901 -2.12132 -2.12132 
C -2.683901 -1.55874 -3 -0.795609 -3 0 
C -3 0.795609 -2.683901 1.55874 -2.12132 2.12132 
C -1.55874 2.683901 -0.795609 3 0 3 
z
" id="m32865ea7d8" style="stroke:#d62728;"/>
    </defs>
    <g clip-path="url(#p0a542e9c0c)">
     <use style="fill:#d62728;stroke:#d62728;" x="58.85304" xlink:href="#m32865ea7d8" y="249.530677"/>
     <use style="fill:#d62728;stroke:#d62728;" x="65.760583" xlink:href="#m32865ea7d8" y="227.256592"/>
     <use style="fill:#d62728;stroke:#d62728;" x="72.668127" xlink:href="#m32865ea7d8" y="197.667984"/>
     <use style="fill:#d62728;stroke:#d62728;" x="79.57567" xlink:href="#m32865ea7d8" y="162.494299"/>
     <use style="fill:#d62728;stroke:#d62728;" x="86.483214" xlink:href="#m32865ea7d8" y="135.753408"/>
     <use style="fill:#d62728;stroke:#d62728;" x="93.390757" xlink:href="#m32865ea7d8" y="107.216035"/>
     <use style="fill:#d62728;stroke:#d62728;" x="100.298301" xlink:href="#m32865ea7d8" y="79.824537"/>
     <use style="fill:#d62728;stroke:#d62728;" x="107.205844" xlink:href="#m32865ea7d8" y="63.317904"/>
     <use style="fill:#d62728;stroke:#d62728;" x="114.113388" xlink:href="#m32865ea7d8" y="43.554285"/>
     <use style="fill:#d62728;stroke:#d62728;" x="121.020931" xlink:href="#m32865ea7d8" y="32.102174"/>
     <use style="fill:#d62728;stroke:#d62728;" x="127.928475" xlink:href="#m32865ea7d8" y="35.366931"/>
     <use style="fill:#d62728;stroke:#d62728;" x="134.836018" xlink:href="#m32865ea7d8" y="36.180948"/>
     <use style="fill:#d62728;stroke:#d62728;" x="141.743562" xlink:href="#m32865ea7d8" y="33.473988"/>
     <use style="fill:#d62728;stroke:#d62728;" x="148.651106" xlink:href="#m32865ea7d8" y="27.476993"/>
     <use style="fill:#d62728;stroke:#d62728;" x="155.558649" xlink:href="#m32865ea7d8" y="26.358888"/>
     <use style="fill:#d62728;stroke:#d62728;" x="162.466193" xlink:href="#m32865ea7d8" y="26.306285"/>
     <use style="fill:#d62728;stroke:#d62728;" x="169.373736" xlink:href="#m32865ea7d8" y="29.953787"/>
     <use style="fill:#d62728;stroke:#d62728;" x="176.28128" xlink:href="#m32865ea7d8" y="29.70094"/>
     <use style="fill:#d62728;stroke:#d62728;" x="183.188823" xlink:href="#m32865ea7d8" y="21.788484"/>
     <use style="fill:#d62728;stroke:#d62728;" x="190.096367" xlink:href="#m32865ea7d8" y="21.888636"/>
     <use style="fill:#d62728;stroke:#d62728;" x="197.00391" xlink:href="#m32865ea7d8" y="27.368564"/>
     <use style="fill:#d62728;stroke:#d62728;" x="203.911454" xlink:href="#m32865ea7d8" y="28.659282"/>
     <use style="fill:#d62728;stroke:#d62728;" x="210.818997" xlink:href="#m32865ea7d8" y="19.296"/>
     <use style="fill:#d62728;stroke:#d62728;" x="217.726541" xlink:href="#m32865ea7d8" y="26.496178"/>
     <use style="fill:#d62728;stroke:#d62728;" x="224.634084" xlink:href="#m32865ea7d8" y="35.317591"/>
     <use style="fill:#d62728;stroke:#d62728;" x="231.541628" xlink:href="#m32865ea7d8" y="22.460981"/>
     <use style="fill:#d62728;stroke:#d62728;" x="238.449171" xlink:href="#m32865ea7d8" y="25.013778"/>
     <use style="fill:#d62728;stroke:#d62728;" x="245.356715" xlink:href="#m32865ea7d8" y="21.19339"/>
     <use style="fill:#d62728;stroke:#d62728;" x="252.264258" xlink:href="#m32865ea7d8" y="26.194879"/>
     <use style="fill:#d62728;stroke:#d62728;" x="259.171802" xlink:href="#m32865ea7d8" y="30.958428"/>
     <use style="fill:#d62728;stroke:#d62728;" x="266.079345" xlink:href="#m32865ea7d8" y="28.577359"/>
     <use style="fill:#d62728;stroke:#d62728;" x="272.986889" xlink:href="#m32865ea7d8" y="21.339079"/>
     <use style="fill:#d62728;stroke:#d62728;" x="279.894432" xlink:href="#m32865ea7d8" y="24.249095"/>
     <use style="fill:#d62728;stroke:#d62728;" x="286.801976" xlink:href="#m32865ea7d8" y="30.740177"/>
     <use style="fill:#d62728;stroke:#d62728;" x="293.709519" xlink:href="#m32865ea7d8" y="25.187085"/>
     <use style="fill:#d62728;stroke:#d62728;" x="300.617063" xlink:href="#m32865ea7d8" y="26.607262"/>
     <use style="fill:#d62728;stroke:#d62728;" x="307.524607" xlink:href="#m32865ea7d8" y="29.9746"/>
     <use style="fill:#d62728;stroke:#d62728;" x="314.43215" xlink:href="#m32865ea7d8" y="26.978321"/>
     <use style="fill:#d62728;stroke:#d62728;" x="321.339694" xlink:href="#m32865ea7d8" y="19.677611"/>
     <use style="fill:#d62728;stroke:#d62728;" x="328.247237" xlink:href="#m32865ea7d8" y="25.96998"/>
     <use style="fill:#d62728;stroke:#d62728;" x="335.154781" xlink:href="#m32865ea7d8" y="28.957329"/>
     <use style="fill:#d62728;stroke:#d62728;" x="342.062324" xlink:href="#m32865ea7d8" y="25.173676"/>
     <use style="fill:#d62728;stroke:#d62728;" x="348.969868" xlink:href="#m32865ea7d8" y="25.269543"/>
     <use style="fill:#d62728;stroke:#d62728;" x="355.877411" xlink:href="#m32865ea7d8" y="26.04862"/>
     <use style="fill:#d62728;stroke:#d62728;" x="362.784955" xlink:href="#m32865ea7d8" y="29.909813"/>
     <use style="fill:#d62728;stroke:#d62728;" x="369.692498" xlink:href="#m32865ea7d8" y="21.804927"/>
     <use style="fill:#d62728;stroke:#d62728;" x="376.600042" xlink:href="#m32865ea7d8" y="22.26025"/>
     <use style="fill:#d62728;stroke:#d62728;" x="383.507585" xlink:href="#m32865ea7d8" y="30.01294"/>
    </g>
   </g>
   <g id="PathCollection_5">
    <defs>
     <path d="M 0 3 
C 0.795609 3 1.55874 2.683901 2.12132 2.12132 
C 2.683901 1.55874 3 0.795609 3 0 
C 3 -0.795609 2.683901 -1.55874 2.12132 -2.12132 
C 1.55874 -2.683901 0.795609 -3 0 -3 
C -0.795609 -3 -1.55874 -2.683901 -2.12132 -2.12132 
C -2.683901 -1.55874 -3 -0.795609 -3 0 
C -3 0.795609 -2.683901 1.55874 -2.12132 2.12132 
C -1.55874 2.683901 -0.795609 3 0 3 
z
" id="m55509a1bc7" style="stroke:#9467bd;"/>
    </defs>
    <g clip-path="url(#p0a542e9c0c)">
     <use style="fill:#9467bd;stroke:#9467bd;" x="58.85304" xlink:href="#m55509a1bc7" y="258.587428"/>
     <use style="fill:#9467bd;stroke:#9467bd;" x="65.760583" xlink:href="#m55509a1bc7" y="259.971892"/>
     <use style="fill:#9467bd;stroke:#9467bd;" x="72.668127" xlink:href="#m55509a1bc7" y="252.992042"/>
     <use style="fill:#9467bd;stroke:#9467bd;" x="79.57567" xlink:href="#m55509a1bc7" y="256.000106"/>
     <use style="fill:#9467bd;stroke:#9467bd;" x="86.483214" xlink:href="#m55509a1bc7" y="256.193362"/>
     <use style="fill:#9467bd;stroke:#9467bd;" x="93.390757" xlink:href="#m55509a1bc7" y="253.988175"/>
     <use style="fill:#9467bd;stroke:#9467bd;" x="100.298301" xlink:href="#m55509a1bc7" y="258.428717"/>
     <use style="fill:#9467bd;stroke:#9467bd;" x="107.205844" xlink:href="#m55509a1bc7" y="255.503787"/>
     <use style="fill:#9467bd;stroke:#9467bd;" x="114.113388" xlink:href="#m55509a1bc7" y="255.920827"/>
     <use style="fill:#9467bd;stroke:#9467bd;" x="121.020931" xlink:href="#m55509a1bc7" y="257.487386"/>
     <use style="fill:#9467bd;stroke:#9467bd;" x="127.928475" xlink:href="#m55509a1bc7" y="251.915298"/>
     <use style="fill:#9467bd;stroke:#9467bd;" x="134.836018" xlink:href="#m55509a1bc7" y="256.160685"/>
     <use style="fill:#9467bd;stroke:#9467bd;" x="141.743562" xlink:href="#m55509a1bc7" y="259.258264"/>
     <use style="fill:#9467bd;stroke:#9467bd;" x="148.651106" xlink:href="#m55509a1bc7" y="257.607776"/>
     <use style="fill:#9467bd;stroke:#9467bd;" x="155.558649" xlink:href="#m55509a1bc7" y="260.150858"/>
     <use style="fill:#9467bd;stroke:#9467bd;" x="162.466193" xlink:href="#m55509a1bc7" y="257.598901"/>
     <use style="fill:#9467bd;stroke:#9467bd;" x="169.373736" xlink:href="#m55509a1bc7" y="256.498555"/>
     <use style="fill:#9467bd;stroke:#9467bd;" x="176.28128" xlink:href="#m55509a1bc7" y="254.820071"/>
     <use style="fill:#9467bd;stroke:#9467bd;" x="183.188823" xlink:href="#m55509a1bc7" y="253.436586"/>
     <use style="fill:#9467bd;stroke:#9467bd;" x="190.096367" xlink:href="#m55509a1bc7" y="256.606424"/>
     <use style="fill:#9467bd;stroke:#9467bd;" x="197.00391" xlink:href="#m55509a1bc7" y="254.79905"/>
     <use style="fill:#9467bd;stroke:#9467bd;" x="203.911454" xlink:href="#m55509a1bc7" y="256.268617"/>
     <use style="fill:#9467bd;stroke:#9467bd;" x="210.818997" xlink:href="#m55509a1bc7" y="254.400019"/>
     <use style="fill:#9467bd;stroke:#9467bd;" x="217.726541" xlink:href="#m55509a1bc7" y="258.073838"/>
     <use style="fill:#9467bd;stroke:#9467bd;" x="224.634084" xlink:href="#m55509a1bc7" y="260.503862"/>
     <use style="fill:#9467bd;stroke:#9467bd;" x="231.541628" xlink:href="#m55509a1bc7" y="257.820529"/>
     <use style="fill:#9467bd;stroke:#9467bd;" x="238.449171" xlink:href="#m55509a1bc7" y="256.036985"/>
     <use style="fill:#9467bd;stroke:#9467bd;" x="245.356715" xlink:href="#m55509a1bc7" y="253.665959"/>
     <use style="fill:#9467bd;stroke:#9467bd;" x="252.264258" xlink:href="#m55509a1bc7" y="261.216"/>
     <use style="fill:#9467bd;stroke:#9467bd;" x="259.171802" xlink:href="#m55509a1bc7" y="254.488693"/>
     <use style="fill:#9467bd;stroke:#9467bd;" x="266.079345" xlink:href="#m55509a1bc7" y="255.012933"/>
     <use style="fill:#9467bd;stroke:#9467bd;" x="272.986889" xlink:href="#m55509a1bc7" y="257.89662"/>
     <use style="fill:#9467bd;stroke:#9467bd;" x="279.894432" xlink:href="#m55509a1bc7" y="254.412497"/>
     <use style="fill:#9467bd;stroke:#9467bd;" x="286.801976" xlink:href="#m55509a1bc7" y="257.334204"/>
     <use style="fill:#9467bd;stroke:#9467bd;" x="293.709519" xlink:href="#m55509a1bc7" y="257.660782"/>
     <use style="fill:#9467bd;stroke:#9467bd;" x="300.617063" xlink:href="#m55509a1bc7" y="258.733368"/>
     <use style="fill:#9467bd;stroke:#9467bd;" x="307.524607" xlink:href="#m55509a1bc7" y="253.202671"/>
     <use style="fill:#9467bd;stroke:#9467bd;" x="314.43215" xlink:href="#m55509a1bc7" y="258.213104"/>
     <use style="fill:#9467bd;stroke:#9467bd;" x="321.339694" xlink:href="#m55509a1bc7" y="255.049773"/>
     <use style="fill:#9467bd;stroke:#9467bd;" x="328.247237" xlink:href="#m55509a1bc7" y="253.274443"/>
     <use style="fill:#9467bd;stroke:#9467bd;" x="335.154781" xlink:href="#m55509a1bc7" y="256.154094"/>
     <use style="fill:#9467bd;stroke:#9467bd;" x="342.062324" xlink:href="#m55509a1bc7" y="250.906548"/>
     <use style="fill:#9467bd;stroke:#9467bd;" x="348.969868" xlink:href="#m55509a1bc7" y="254.952594"/>
     <use style="fill:#9467bd;stroke:#9467bd;" x="355.877411" xlink:href="#m55509a1bc7" y="257.610658"/>
     <use style="fill:#9467bd;stroke:#9467bd;" x="362.784955" xlink:href="#m55509a1bc7" y="258.49675"/>
     <use style="fill:#9467bd;stroke:#9467bd;" x="369.692498" xlink:href="#m55509a1bc7" y="254.478715"/>
     <use style="fill:#9467bd;stroke:#9467bd;" x="376.600042" xlink:href="#m55509a1bc7" y="254.909873"/>
     <use style="fill:#9467bd;stroke:#9467bd;" x="383.507585" xlink:href="#m55509a1bc7" y="255.537383"/>
    </g>
   </g>
   <g id="matplotlib.axis_1">
    <g id="xtick_1">
     <g id="line2d_1">
      <defs>
       <path d="M 0 0 
L 0 3.5 
" id="m165fef857a" style="stroke:#000000;stroke-width:0.8;"/>
      </defs>
      <g>
       <use style="stroke:#000000;stroke-width:0.8;" x="58.85304" xlink:href="#m165fef857a" y="273.312"/>
      </g>
     </g>
     <g id="text_1">
      <!-- 0 -->
      <g transform="translate(55.67179 287.910437)scale(0.1 -0.1)">
       <defs>
        <path d="M 31.78125 66.40625 
Q 24.171875 66.40625 20.328125 58.90625 
Q 16.5 51.421875 16.5 36.375 
Q 16.5 21.390625 20.328125 13.890625 
Q 24.171875 6.390625 31.78125 6.390625 
Q 39.453125 6.390625 43.28125 13.890625 
Q 47.125 21.390625 47.125 36.375 
Q 47.125 51.421875 43.28125 58.90625 
Q 39.453125 66.40625 31.78125 66.40625 
z
M 31.78125 74.21875 
Q 44.046875 74.21875 50.515625 64.515625 
Q 56.984375 54.828125 56.984375 36.375 
Q 56.984375 17.96875 50.515625 8.265625 
Q 44.046875 -1.421875 31.78125 -1.421875 
Q 19.53125 -1.421875 13.0625 8.265625 
Q 6.59375 17.96875 6.59375 36.375 
Q 6.59375 54.828125 13.0625 64.515625 
Q 19.53125 74.21875 31.78125 74.21875 
z
" id="DejaVuSans-48"/>
       </defs>
       <use xlink:href="#DejaVuSans-48"/>
      </g>
     </g>
    </g>
    <g id="xtick_2">
     <g id="line2d_2">
      <g>
       <use style="stroke:#000000;stroke-width:0.8;" x="127.928475" xlink:href="#m165fef857a" y="273.312"/>
      </g>
     </g>
     <g id="text_2">
      <!-- 10 -->
      <g transform="translate(121.565975 287.910437)scale(0.1 -0.1)">
       <defs>
        <path d="M 12.40625 8.296875 
L 28.515625 8.296875 
L 28.515625 63.921875 
L 10.984375 60.40625 
L 10.984375 69.390625 
L 28.421875 72.90625 
L 38.28125 72.90625 
L 38.28125 8.296875 
L 54.390625 8.296875 
L 54.390625 0 
L 12.40625 0 
z
" id="DejaVuSans-49"/>
       </defs>
       <use xlink:href="#DejaVuSans-49"/>
       <use x="63.623047" xlink:href="#DejaVuSans-48"/>
      </g>
     </g>
    </g>
    <g id="xtick_3">
     <g id="line2d_3">
      <g>
       <use style="stroke:#000000;stroke-width:0.8;" x="197.00391" xlink:href="#m165fef857a" y="273.312"/>
      </g>
     </g>
     <g id="text_3">
      <!-- 20 -->
      <g transform="translate(190.64141 287.910437)scale(0.1 -0.1)">
       <defs>
        <path d="M 19.1875 8.296875 
L 53.609375 8.296875 
L 53.609375 0 
L 7.328125 0 
L 7.328125 8.296875 
Q 12.9375 14.109375 22.625 23.890625 
Q 32.328125 33.6875 34.8125 36.53125 
Q 39.546875 41.84375 41.421875 45.53125 
Q 43.3125 49.21875 43.3125 52.78125 
Q 43.3125 58.59375 39.234375 62.25 
Q 35.15625 65.921875 28.609375 65.921875 
Q 23.96875 65.921875 18.8125 64.3125 
Q 13.671875 62.703125 7.8125 59.421875 
L 7.8125 69.390625 
Q 13.765625 71.78125 18.9375 73 
Q 24.125 74.21875 28.421875 74.21875 
Q 39.75 74.21875 46.484375 68.546875 
Q 53.21875 62.890625 53.21875 53.421875 
Q 53.21875 48.921875 51.53125 44.890625 
Q 49.859375 40.875 45.40625 35.40625 
Q 44.1875 33.984375 37.640625 27.21875 
Q 31.109375 20.453125 19.1875 8.296875 
z
" id="DejaVuSans-50"/>
       </defs>
       <use xlink:href="#DejaVuSans-50"/>
       <use x="63.623047" xlink:href="#DejaVuSans-48"/>
      </g>
     </g>
    </g>
    <g id="xtick_4">
     <g id="line2d_4">
      <g>
       <use style="stroke:#000000;stroke-width:0.8;" x="266.079345" xlink:href="#m165fef857a" y="273.312"/>
      </g>
     </g>
     <g id="text_4">
      <!-- 30 -->
      <g transform="translate(259.716845 287.910437)scale(0.1 -0.1)">
       <defs>
        <path d="M 40.578125 39.3125 
Q 47.65625 37.796875 51.625 33 
Q 55.609375 28.21875 55.609375 21.1875 
Q 55.609375 10.40625 48.1875 4.484375 
Q 40.765625 -1.421875 27.09375 -1.421875 
Q 22.515625 -1.421875 17.65625 -0.515625 
Q 12.796875 0.390625 7.625 2.203125 
L 7.625 11.71875 
Q 11.71875 9.328125 16.59375 8.109375 
Q 21.484375 6.890625 26.8125 6.890625 
Q 36.078125 6.890625 40.9375 10.546875 
Q 45.796875 14.203125 45.796875 21.1875 
Q 45.796875 27.640625 41.28125 31.265625 
Q 36.765625 34.90625 28.71875 34.90625 
L 20.21875 34.90625 
L 20.21875 43.015625 
L 29.109375 43.015625 
Q 36.375 43.015625 40.234375 45.921875 
Q 44.09375 48.828125 44.09375 54.296875 
Q 44.09375 59.90625 40.109375 62.90625 
Q 36.140625 65.921875 28.71875 65.921875 
Q 24.65625 65.921875 20.015625 65.03125 
Q 15.375 64.15625 9.8125 62.3125 
L 9.8125 71.09375 
Q 15.4375 72.65625 20.34375 73.4375 
Q 25.25 74.21875 29.59375 74.21875 
Q 40.828125 74.21875 47.359375 69.109375 
Q 53.90625 64.015625 53.90625 55.328125 
Q 53.90625 49.265625 50.4375 45.09375 
Q 46.96875 40.921875 40.578125 39.3125 
z
" id="DejaVuSans-51"/>
       </defs>
       <use xlink:href="#DejaVuSans-51"/>
       <use x="63.623047" xlink:href="#DejaVuSans-48"/>
      </g>
     </g>
    </g>
    <g id="xtick_5">
     <g id="line2d_5">
      <g>
       <use style="stroke:#000000;stroke-width:0.8;" x="335.154781" xlink:href="#m165fef857a" y="273.312"/>
      </g>
     </g>
     <g id="text_5">
      <!-- 40 -->
      <g transform="translate(328.792281 287.910437)scale(0.1 -0.1)">
       <defs>
        <path d="M 37.796875 64.3125 
L 12.890625 25.390625 
L 37.796875 25.390625 
z
M 35.203125 72.90625 
L 47.609375 72.90625 
L 47.609375 25.390625 
L 58.015625 25.390625 
L 58.015625 17.1875 
L 47.609375 17.1875 
L 47.609375 0 
L 37.796875 0 
L 37.796875 17.1875 
L 4.890625 17.1875 
L 4.890625 26.703125 
z
" id="DejaVuSans-52"/>
       </defs>
       <use xlink:href="#DejaVuSans-52"/>
       <use x="63.623047" xlink:href="#DejaVuSans-48"/>
      </g>
     </g>
    </g>
    <g id="text_6">
     <!-- time, h -->
     <g transform="translate(203.537344 301.588562)scale(0.1 -0.1)">
      <defs>
       <path d="M 18.3125 70.21875 
L 18.3125 54.6875 
L 36.8125 54.6875 
L 36.8125 47.703125 
L 18.3125 47.703125 
L 18.3125 18.015625 
Q 18.3125 11.328125 20.140625 9.421875 
Q 21.96875 7.515625 27.59375 7.515625 
L 36.8125 7.515625 
L 36.8125 0 
L 27.59375 0 
Q 17.1875 0 13.234375 3.875 
Q 9.28125 7.765625 9.28125 18.015625 
L 9.28125 47.703125 
L 2.6875 47.703125 
L 2.6875 54.6875 
L 9.28125 54.6875 
L 9.28125 70.21875 
z
" id="DejaVuSans-116"/>
       <path d="M 9.421875 54.6875 
L 18.40625 54.6875 
L 18.40625 0 
L 9.421875 0 
z
M 9.421875 75.984375 
L 18.40625 75.984375 
L 18.40625 64.59375 
L 9.421875 64.59375 
z
" id="DejaVuSans-105"/>
       <path d="M 52 44.1875 
Q 55.375 50.25 60.0625 53.125 
Q 64.75 56 71.09375 56 
Q 79.640625 56 84.28125 50.015625 
Q 88.921875 44.046875 88.921875 33.015625 
L 88.921875 0 
L 79.890625 0 
L 79.890625 32.71875 
Q 79.890625 40.578125 77.09375 44.375 
Q 74.3125 48.1875 68.609375 48.1875 
Q 61.625 48.1875 57.5625 43.546875 
Q 53.515625 38.921875 53.515625 30.90625 
L 53.515625 0 
L 44.484375 0 
L 44.484375 32.71875 
Q 44.484375 40.625 41.703125 44.40625 
Q 38.921875 48.1875 33.109375 48.1875 
Q 26.21875 48.1875 22.15625 43.53125 
Q 18.109375 38.875 18.109375 30.90625 
L 18.109375 0 
L 9.078125 0 
L 9.078125 54.6875 
L 18.109375 54.6875 
L 18.109375 46.1875 
Q 21.1875 51.21875 25.484375 53.609375 
Q 29.78125 56 35.6875 56 
Q 41.65625 56 45.828125 52.96875 
Q 50 49.953125 52 44.1875 
z
" id="DejaVuSans-109"/>
       <path d="M 56.203125 29.59375 
L 56.203125 25.203125 
L 14.890625 25.203125 
Q 15.484375 15.921875 20.484375 11.0625 
Q 25.484375 6.203125 34.421875 6.203125 
Q 39.59375 6.203125 44.453125 7.46875 
Q 49.3125 8.734375 54.109375 11.28125 
L 54.109375 2.78125 
Q 49.265625 0.734375 44.1875 -0.34375 
Q 39.109375 -1.421875 33.890625 -1.421875 
Q 20.796875 -1.421875 13.15625 6.1875 
Q 5.515625 13.8125 5.515625 26.8125 
Q 5.515625 40.234375 12.765625 48.109375 
Q 20.015625 56 32.328125 56 
Q 43.359375 56 49.78125 48.890625 
Q 56.203125 41.796875 56.203125 29.59375 
z
M 47.21875 32.234375 
Q 47.125 39.59375 43.09375 43.984375 
Q 39.0625 48.390625 32.421875 48.390625 
Q 24.90625 48.390625 20.390625 44.140625 
Q 15.875 39.890625 15.1875 32.171875 
z
" id="DejaVuSans-101"/>
       <path d="M 11.71875 12.40625 
L 22.015625 12.40625 
L 22.015625 4 
L 14.015625 -11.625 
L 7.71875 -11.625 
L 11.71875 4 
z
" id="DejaVuSans-44"/>
       <path id="DejaVuSans-32"/>
       <path d="M 54.890625 33.015625 
L 54.890625 0 
L 45.90625 0 
L 45.90625 32.71875 
Q 45.90625 40.484375 42.875 44.328125 
Q 39.84375 48.1875 33.796875 48.1875 
Q 26.515625 48.1875 22.3125 43.546875 
Q 18.109375 38.921875 18.109375 30.90625 
L 18.109375 0 
L 9.078125 0 
L 9.078125 75.984375 
L 18.109375 75.984375 
L 18.109375 46.1875 
Q 21.34375 51.125 25.703125 53.5625 
Q 30.078125 56 35.796875 56 
Q 45.21875 56 50.046875 50.171875 
Q 54.890625 44.34375 54.890625 33.015625 
z
" id="DejaVuSans-104"/>
      </defs>
      <use xlink:href="#DejaVuSans-116"/>
      <use x="39.208984" xlink:href="#DejaVuSans-105"/>
      <use x="66.992188" xlink:href="#DejaVuSans-109"/>
      <use x="164.404297" xlink:href="#DejaVuSans-101"/>
      <use x="225.927734" xlink:href="#DejaVuSans-44"/>
      <use x="257.714844" xlink:href="#DejaVuSans-32"/>
      <use x="289.501953" xlink:href="#DejaVuSans-104"/>
     </g>
    </g>
   </g>
   <g id="matplotlib.axis_2">
    <g id="ytick_1">
     <g id="line2d_6">
      <defs>
       <path d="M 0 0 
L -3.5 0 
" id="mae562204dd" style="stroke:#000000;stroke-width:0.8;"/>
      </defs>
      <g>
       <use style="stroke:#000000;stroke-width:0.8;" x="42.620313" xlink:href="#mae562204dd" y="245.266975"/>
      </g>
     </g>
     <g id="text_7">
      <!-- −2 -->
      <g transform="translate(20.878125 249.066193)scale(0.1 -0.1)">
       <defs>
        <path d="M 10.59375 35.5 
L 73.1875 35.5 
L 73.1875 27.203125 
L 10.59375 27.203125 
z
" id="DejaVuSans-8722"/>
       </defs>
       <use xlink:href="#DejaVuSans-8722"/>
       <use x="83.789062" xlink:href="#DejaVuSans-50"/>
      </g>
     </g>
    </g>
    <g id="ytick_2">
     <g id="line2d_7">
      <g>
       <use style="stroke:#000000;stroke-width:0.8;" x="42.620313" xlink:href="#mae562204dd" y="208.571121"/>
      </g>
     </g>
     <g id="text_8">
      <!-- −1 -->
      <g transform="translate(20.878125 212.37034)scale(0.1 -0.1)">
       <use xlink:href="#DejaVuSans-8722"/>
       <use x="83.789062" xlink:href="#DejaVuSans-49"/>
      </g>
     </g>
    </g>
    <g id="ytick_3">
     <g id="line2d_8">
      <g>
       <use style="stroke:#000000;stroke-width:0.8;" x="42.620313" xlink:href="#mae562204dd" y="171.875267"/>
      </g>
     </g>
     <g id="text_9">
      <!-- 0 -->
      <g transform="translate(29.257813 175.674486)scale(0.1 -0.1)">
       <use xlink:href="#DejaVuSans-48"/>
      </g>
     </g>
    </g>
    <g id="ytick_4">
     <g id="line2d_9">
      <g>
       <use style="stroke:#000000;stroke-width:0.8;" x="42.620313" xlink:href="#mae562204dd" y="135.179414"/>
      </g>
     </g>
     <g id="text_10">
      <!-- 1 -->
      <g transform="translate(29.257813 138.978632)scale(0.1 -0.1)">
       <use xlink:href="#DejaVuSans-49"/>
      </g>
     </g>
    </g>
    <g id="ytick_5">
     <g id="line2d_10">
      <g>
       <use style="stroke:#000000;stroke-width:0.8;" x="42.620313" xlink:href="#mae562204dd" y="98.48356"/>
      </g>
     </g>
     <g id="text_11">
      <!-- 2 -->
      <g transform="translate(29.257813 102.282779)scale(0.1 -0.1)">
       <use xlink:href="#DejaVuSans-50"/>
      </g>
     </g>
    </g>
    <g id="ytick_6">
     <g id="line2d_11">
      <g>
       <use style="stroke:#000000;stroke-width:0.8;" x="42.620313" xlink:href="#mae562204dd" y="61.787706"/>
      </g>
     </g>
     <g id="text_12">
      <!-- 3 -->
      <g transform="translate(29.257813 65.586925)scale(0.1 -0.1)">
       <use xlink:href="#DejaVuSans-51"/>
      </g>
     </g>
    </g>
    <g id="ytick_7">
     <g id="line2d_12">
      <g>
       <use style="stroke:#000000;stroke-width:0.8;" x="42.620313" xlink:href="#mae562204dd" y="25.091852"/>
      </g>
     </g>
     <g id="text_13">
      <!-- 4 -->
      <g transform="translate(29.257813 28.891071)scale(0.1 -0.1)">
       <use xlink:href="#DejaVuSans-52"/>
      </g>
     </g>
    </g>
    <g id="text_14">
     <!-- ln(Biomass) -->
     <g transform="translate(14.798438 169.738031)rotate(-90)scale(0.1 -0.1)">
      <defs>
       <path d="M 9.421875 75.984375 
L 18.40625 75.984375 
L 18.40625 0 
L 9.421875 0 
z
" id="DejaVuSans-108"/>
       <path d="M 54.890625 33.015625 
L 54.890625 0 
L 45.90625 0 
L 45.90625 32.71875 
Q 45.90625 40.484375 42.875 44.328125 
Q 39.84375 48.1875 33.796875 48.1875 
Q 26.515625 48.1875 22.3125 43.546875 
Q 18.109375 38.921875 18.109375 30.90625 
L 18.109375 0 
L 9.078125 0 
L 9.078125 54.6875 
L 18.109375 54.6875 
L 18.109375 46.1875 
Q 21.34375 51.125 25.703125 53.5625 
Q 30.078125 56 35.796875 56 
Q 45.21875 56 50.046875 50.171875 
Q 54.890625 44.34375 54.890625 33.015625 
z
" id="DejaVuSans-110"/>
       <path d="M 31 75.875 
Q 24.46875 64.65625 21.28125 53.65625 
Q 18.109375 42.671875 18.109375 31.390625 
Q 18.109375 20.125 21.3125 9.0625 
Q 24.515625 -2 31 -13.1875 
L 23.1875 -13.1875 
Q 15.875 -1.703125 12.234375 9.375 
Q 8.59375 20.453125 8.59375 31.390625 
Q 8.59375 42.28125 12.203125 53.3125 
Q 15.828125 64.359375 23.1875 75.875 
z
" id="DejaVuSans-40"/>
       <path d="M 19.671875 34.8125 
L 19.671875 8.109375 
L 35.5 8.109375 
Q 43.453125 8.109375 47.28125 11.40625 
Q 51.125 14.703125 51.125 21.484375 
Q 51.125 28.328125 47.28125 31.5625 
Q 43.453125 34.8125 35.5 34.8125 
z
M 19.671875 64.796875 
L 19.671875 42.828125 
L 34.28125 42.828125 
Q 41.5 42.828125 45.03125 45.53125 
Q 48.578125 48.25 48.578125 53.8125 
Q 48.578125 59.328125 45.03125 62.0625 
Q 41.5 64.796875 34.28125 64.796875 
z
M 9.8125 72.90625 
L 35.015625 72.90625 
Q 46.296875 72.90625 52.390625 68.21875 
Q 58.5 63.53125 58.5 54.890625 
Q 58.5 48.1875 55.375 44.234375 
Q 52.25 40.28125 46.1875 39.3125 
Q 53.46875 37.75 57.5 32.78125 
Q 61.53125 27.828125 61.53125 20.40625 
Q 61.53125 10.640625 54.890625 5.3125 
Q 48.25 0 35.984375 0 
L 9.8125 0 
z
" id="DejaVuSans-66"/>
       <path d="M 30.609375 48.390625 
Q 23.390625 48.390625 19.1875 42.75 
Q 14.984375 37.109375 14.984375 27.296875 
Q 14.984375 17.484375 19.15625 11.84375 
Q 23.34375 6.203125 30.609375 6.203125 
Q 37.796875 6.203125 41.984375 11.859375 
Q 46.1875 17.53125 46.1875 27.296875 
Q 46.1875 37.015625 41.984375 42.703125 
Q 37.796875 48.390625 30.609375 48.390625 
z
M 30.609375 56 
Q 42.328125 56 49.015625 48.375 
Q 55.71875 40.765625 55.71875 27.296875 
Q 55.71875 13.875 49.015625 6.21875 
Q 42.328125 -1.421875 30.609375 -1.421875 
Q 18.84375 -1.421875 12.171875 6.21875 
Q 5.515625 13.875 5.515625 27.296875 
Q 5.515625 40.765625 12.171875 48.375 
Q 18.84375 56 30.609375 56 
z
" id="DejaVuSans-111"/>
       <path d="M 34.28125 27.484375 
Q 23.390625 27.484375 19.1875 25 
Q 14.984375 22.515625 14.984375 16.5 
Q 14.984375 11.71875 18.140625 8.90625 
Q 21.296875 6.109375 26.703125 6.109375 
Q 34.1875 6.109375 38.703125 11.40625 
Q 43.21875 16.703125 43.21875 25.484375 
L 43.21875 27.484375 
z
M 52.203125 31.203125 
L 52.203125 0 
L 43.21875 0 
L 43.21875 8.296875 
Q 40.140625 3.328125 35.546875 0.953125 
Q 30.953125 -1.421875 24.3125 -1.421875 
Q 15.921875 -1.421875 10.953125 3.296875 
Q 6 8.015625 6 15.921875 
Q 6 25.140625 12.171875 29.828125 
Q 18.359375 34.515625 30.609375 34.515625 
L 43.21875 34.515625 
L 43.21875 35.40625 
Q 43.21875 41.609375 39.140625 45 
Q 35.0625 48.390625 27.6875 48.390625 
Q 23 48.390625 18.546875 47.265625 
Q 14.109375 46.140625 10.015625 43.890625 
L 10.015625 52.203125 
Q 14.9375 54.109375 19.578125 55.046875 
Q 24.21875 56 28.609375 56 
Q 40.484375 56 46.34375 49.84375 
Q 52.203125 43.703125 52.203125 31.203125 
z
" id="DejaVuSans-97"/>
       <path d="M 44.28125 53.078125 
L 44.28125 44.578125 
Q 40.484375 46.53125 36.375 47.5 
Q 32.28125 48.484375 27.875 48.484375 
Q 21.1875 48.484375 17.84375 46.4375 
Q 14.5 44.390625 14.5 40.28125 
Q 14.5 37.15625 16.890625 35.375 
Q 19.28125 33.59375 26.515625 31.984375 
L 29.59375 31.296875 
Q 39.15625 29.25 43.1875 25.515625 
Q 47.21875 21.78125 47.21875 15.09375 
Q 47.21875 7.46875 41.1875 3.015625 
Q 35.15625 -1.421875 24.609375 -1.421875 
Q 20.21875 -1.421875 15.453125 -0.5625 
Q 10.6875 0.296875 5.421875 2 
L 5.421875 11.28125 
Q 10.40625 8.6875 15.234375 7.390625 
Q 20.0625 6.109375 24.8125 6.109375 
Q 31.15625 6.109375 34.5625 8.28125 
Q 37.984375 10.453125 37.984375 14.40625 
Q 37.984375 18.0625 35.515625 20.015625 
Q 33.0625 21.96875 24.703125 23.78125 
L 21.578125 24.515625 
Q 13.234375 26.265625 9.515625 29.90625 
Q 5.8125 33.546875 5.8125 39.890625 
Q 5.8125 47.609375 11.28125 51.796875 
Q 16.75 56 26.8125 56 
Q 31.78125 56 36.171875 55.265625 
Q 40.578125 54.546875 44.28125 53.078125 
z
" id="DejaVuSans-115"/>
       <path d="M 8.015625 75.875 
L 15.828125 75.875 
Q 23.140625 64.359375 26.78125 53.3125 
Q 30.421875 42.28125 30.421875 31.390625 
Q 30.421875 20.453125 26.78125 9.375 
Q 23.140625 -1.703125 15.828125 -13.1875 
L 8.015625 -13.1875 
Q 14.5 -2 17.703125 9.0625 
Q 20.90625 20.125 20.90625 31.390625 
Q 20.90625 42.671875 17.703125 53.65625 
Q 14.5 64.65625 8.015625 75.875 
z
" id="DejaVuSans-41"/>
      </defs>
      <use xlink:href="#DejaVuSans-108"/>
      <use x="27.783203" xlink:href="#DejaVuSans-110"/>
      <use x="91.162109" xlink:href="#DejaVuSans-40"/>
      <use x="130.175781" xlink:href="#DejaVuSans-66"/>
      <use x="198.779297" xlink:href="#DejaVuSans-105"/>
      <use x="226.5625" xlink:href="#DejaVuSans-111"/>
      <use x="287.744141" xlink:href="#DejaVuSans-109"/>
      <use x="385.15625" xlink:href="#DejaVuSans-97"/>
      <use x="446.435547" xlink:href="#DejaVuSans-115"/>
      <use x="498.535156" xlink:href="#DejaVuSans-115"/>
      <use x="550.634766" xlink:href="#DejaVuSans-41"/>
     </g>
    </g>
   </g>
   <g id="patch_3">
    <path d="M 42.620313 273.312 
L 42.620313 7.2 
" style="fill:none;stroke:#000000;stroke-linecap:square;stroke-linejoin:miter;stroke-width:0.8;"/>
   </g>
   <g id="patch_4">
    <path d="M 399.740313 273.312 
L 399.740313 7.2 
" style="fill:none;stroke:#000000;stroke-linecap:square;stroke-linejoin:miter;stroke-width:0.8;"/>
   </g>
   <g id="patch_5">
    <path d="M 42.620312 273.312 
L 399.740312 273.312 
" style="fill:none;stroke:#000000;stroke-linecap:square;stroke-linejoin:miter;stroke-width:0.8;"/>
   </g>
   <g id="patch_6">
    <path d="M 42.620312 7.2 
L 399.740312 7.2 
" style="fill:none;stroke:#000000;stroke-linecap:square;stroke-linejoin:miter;stroke-width:0.8;"/>
   </g>
   <g id="legend_1">
    <g id="patch_7">
     <path d="M 424.596313 88.590625 
L 469.321313 88.590625 
Q 471.321313 88.590625 471.321313 86.590625 
L 471.321313 14.2 
Q 471.321313 12.2 469.321313 12.2 
L 424.596313 12.2 
Q 422.596313 12.2 422.596313 14.2 
L 422.596313 86.590625 
Q 422.596313 88.590625 424.596313 88.590625 
z
" style="fill:#ffffff;opacity:0.8;stroke:#cccccc;stroke-linejoin:miter;"/>
    </g>
    <g id="PathCollection_6">
     <g>
      <use style="fill:#1f77b4;stroke:#1f77b4;" x="436.596313" xlink:href="#mfdd4968dc5" y="21.173437"/>
     </g>
    </g>
    <g id="text_15">
     <!-- 22 -->
     <g transform="translate(454.596313 23.798437)scale(0.1 -0.1)">
      <use xlink:href="#DejaVuSans-50"/>
      <use x="63.623047" xlink:href="#DejaVuSans-50"/>
     </g>
    </g>
    <g id="PathCollection_7">
     <g>
      <use style="fill:#ff7f0e;stroke:#ff7f0e;" x="436.596313" xlink:href="#m4f86fef887" y="35.851562"/>
     </g>
    </g>
    <g id="text_16">
     <!-- 26 -->
     <g transform="translate(454.596313 38.476562)scale(0.1 -0.1)">
      <defs>
       <path d="M 33.015625 40.375 
Q 26.375 40.375 22.484375 35.828125 
Q 18.609375 31.296875 18.609375 23.390625 
Q 18.609375 15.53125 22.484375 10.953125 
Q 26.375 6.390625 33.015625 6.390625 
Q 39.65625 6.390625 43.53125 10.953125 
Q 47.40625 15.53125 47.40625 23.390625 
Q 47.40625 31.296875 43.53125 35.828125 
Q 39.65625 40.375 33.015625 40.375 
z
M 52.59375 71.296875 
L 52.59375 62.3125 
Q 48.875 64.0625 45.09375 64.984375 
Q 41.3125 65.921875 37.59375 65.921875 
Q 27.828125 65.921875 22.671875 59.328125 
Q 17.53125 52.734375 16.796875 39.40625 
Q 19.671875 43.65625 24.015625 45.921875 
Q 28.375 48.1875 33.59375 48.1875 
Q 44.578125 48.1875 50.953125 41.515625 
Q 57.328125 34.859375 57.328125 23.390625 
Q 57.328125 12.15625 50.6875 5.359375 
Q 44.046875 -1.421875 33.015625 -1.421875 
Q 20.359375 -1.421875 13.671875 8.265625 
Q 6.984375 17.96875 6.984375 36.375 
Q 6.984375 53.65625 15.1875 63.9375 
Q 23.390625 74.21875 37.203125 74.21875 
Q 40.921875 74.21875 44.703125 73.484375 
Q 48.484375 72.75 52.59375 71.296875 
z
" id="DejaVuSans-54"/>
      </defs>
      <use xlink:href="#DejaVuSans-50"/>
      <use x="63.623047" xlink:href="#DejaVuSans-54"/>
     </g>
    </g>
    <g id="PathCollection_8">
     <g>
      <use style="fill:#2ca02c;stroke:#2ca02c;" x="436.596313" xlink:href="#mc2f4d2332f" y="50.529687"/>
     </g>
    </g>
    <g id="text_17">
     <!-- 30 -->
     <g transform="translate(454.596313 53.154687)scale(0.1 -0.1)">
      <use xlink:href="#DejaVuSans-51"/>
      <use x="63.623047" xlink:href="#DejaVuSans-48"/>
     </g>
    </g>
    <g id="PathCollection_9">
     <g>
      <use style="fill:#d62728;stroke:#d62728;" x="436.596313" xlink:href="#m32865ea7d8" y="65.207812"/>
     </g>
    </g>
    <g id="text_18">
     <!-- 34 -->
     <g transform="translate(454.596313 67.832812)scale(0.1 -0.1)">
      <use xlink:href="#DejaVuSans-51"/>
      <use x="63.623047" xlink:href="#DejaVuSans-52"/>
     </g>
    </g>
    <g id="PathCollection_10">
     <g>
      <use style="fill:#9467bd;stroke:#9467bd;" x="436.596313" xlink:href="#m55509a1bc7" y="79.885937"/>
     </g>
    </g>
    <g id="text_19">
     <!-- 38 -->
     <g transform="translate(454.596313 82.510937)scale(0.1 -0.1)">
      <defs>
       <path d="M 31.78125 34.625 
Q 24.75 34.625 20.71875 30.859375 
Q 16.703125 27.09375 16.703125 20.515625 
Q 16.703125 13.921875 20.71875 10.15625 
Q 24.75 6.390625 31.78125 6.390625 
Q 38.8125 6.390625 42.859375 10.171875 
Q 46.921875 13.96875 46.921875 20.515625 
Q 46.921875 27.09375 42.890625 30.859375 
Q 38.875 34.625 31.78125 34.625 
z
M 21.921875 38.8125 
Q 15.578125 40.375 12.03125 44.71875 
Q 8.5 49.078125 8.5 55.328125 
Q 8.5 64.0625 14.71875 69.140625 
Q 20.953125 74.21875 31.78125 74.21875 
Q 42.671875 74.21875 48.875 69.140625 
Q 55.078125 64.0625 55.078125 55.328125 
Q 55.078125 49.078125 51.53125 44.71875 
Q 48 40.375 41.703125 38.8125 
Q 48.828125 37.15625 52.796875 32.3125 
Q 56.78125 27.484375 56.78125 20.515625 
Q 56.78125 9.90625 50.3125 4.234375 
Q 43.84375 -1.421875 31.78125 -1.421875 
Q 19.734375 -1.421875 13.25 4.234375 
Q 6.78125 9.90625 6.78125 20.515625 
Q 6.78125 27.484375 10.78125 32.3125 
Q 14.796875 37.15625 21.921875 38.8125 
z
M 18.3125 54.390625 
Q 18.3125 48.734375 21.84375 45.5625 
Q 25.390625 42.390625 31.78125 42.390625 
Q 38.140625 42.390625 41.71875 45.5625 
Q 45.3125 48.734375 45.3125 54.390625 
Q 45.3125 60.0625 41.71875 63.234375 
Q 38.140625 66.40625 31.78125 66.40625 
Q 25.390625 66.40625 21.84375 63.234375 
Q 18.3125 60.0625 18.3125 54.390625 
z
" id="DejaVuSans-56"/>
      </defs>
      <use xlink:href="#DejaVuSans-51"/>
      <use x="63.623047" xlink:href="#DejaVuSans-56"/>
     </g>
    </g>
   </g>
  </g>
 </g>
 <defs>
  <clipPath id="p0a542e9c0c">
   <rect height="266.112" width="357.12" x="42.620313" y="7.2"/>
  </clipPath>
 </defs>
</svg>
